<svg width="100" height="100" viewBox="0 0 100 100" fill="none" xmlns="http://www.w3.org/2000/svg">
<circle cx="50" cy="50" r="50" fill="#FFAD9E"/>
<path d="M51 65.3134V20L65.5275 25.4179L98.9407 59.403C98.9407 59.403 99.6671 59.8955 96.0352 69.7463C92.4033 79.597 82 88.5 82 88.5L51 65.3134Z" fill="#FF6262"/>
<circle cx="50.7617" cy="40.7617" r="20.7617" fill="#1E1E1E"/>
<path d="M30 40.7617C30 52.228 39.5336 61.5 51 61.5V20C39.5336 20 30 29.2953 30 40.7617Z" fill="#333333"/>
<path d="M50 99.8771C28.3783 99.8771 16.2162 86.6093 16.2162 86.6093C16.2162 86.6093 26.9214 65 51 65C75.0786 65 83.9066 86.6093 83.9066 86.6093C83.9066 86.6093 71.6216 99.8771 50 99.8771Z" fill="#1E1E1E"/>
<path d="M51 99.8771C29.3784 99.8771 16 87 16 87C16 87 26.9214 65 51 65V99.8771Z" fill="#333333"/>
</svg>
